<svg xmlns="http://www.w3.org/2000/svg" viewBox="0 0 128 128">
<g stroke="#4b2e22" stroke-width="4" stroke-linejoin="round" stroke-linecap="round">
<path d="M64 26L68 12" stroke="#4b2e22" stroke-width="8"/><path d="M64 26L68 12" stroke="#8b5a3c" stroke-width="2"/><path d="M68.0 16.0Q79.8 18.4 85.3 6.0Q71.8 4.6 68.0 16.0Z" fill="#6cc28a" stroke-width="3"/>
<path d="M64 24c10 0 12 14 14 24 2 10 24 22 24 44 0 18-18 28-38 28S26 110 26 92c0-22 22-34 24-44 2-10 4-24 14-24Z" fill="#c8e68a"/>
<path d="M42 70q4-8 10-10" fill="none" stroke="#ffffff" stroke-width="4" opacity=".8"/>
<g stroke="none"><ellipse cx="54" cy="84" rx="4" ry="4.6" fill="#4b2e22"/><ellipse cx="74" cy="84" rx="4" ry="4.6" fill="#4b2e22"/>
<circle cx="55.4" cy="82.4" r="1.4" fill="#fff"/><circle cx="75.4" cy="82.4" r="1.4" fill="#fff"/>
<g fill="#ff9bb5" opacity=".7"><ellipse cx="46" cy="92" rx="6" ry="3.5"/><ellipse cx="82" cy="92" rx="6" ry="3.5"/></g></g>
<path d="M60.0 93q4.0 4.4 8 0" fill="none" stroke-width="3"/>
</g>
</svg>
