<svg xmlns="http://www.w3.org/2000/svg" viewBox="0 0 128 128">
<g stroke="#4b2e22" stroke-width="4" stroke-linejoin="round" stroke-linecap="round">
<path d="M62 104L60 124" stroke="#4b2e22" stroke-width="13"/><path d="M62 104L60 124" stroke="#ffd27a" stroke-width="7"/><path d="M74 106L74 124" stroke="#4b2e22" stroke-width="13"/><path d="M74 106L74 124" stroke="#ffd27a" stroke-width="7"/>
<path d="M92 106L92 124" stroke="#4b2e22" stroke-width="13"/><path d="M92 106L92 124" stroke="#ffd27a" stroke-width="7"/><path d="M102 102L106 124" stroke="#4b2e22" stroke-width="13"/><path d="M102 102L106 124" stroke="#ffd27a" stroke-width="7"/>
<path d="M106 92q12 4 14 16" fill="none" stroke-width="3"/>
<ellipse cx="82" cy="96" rx="28" ry="16" fill="#ffd27a"/>
<path d="M58 92 42 38l14-5 18 55Z" fill="#ffd27a"/>
<circle cx="68" cy="94" r="5" fill="#e8a45a" stroke="none"/><circle cx="86" cy="100" r="6" fill="#e8a45a" stroke="none"/><circle cx="100" cy="92" r="4" fill="#e8a45a" stroke="none"/><circle cx="54" cy="70" r="3.5" fill="#e8a45a" stroke="none"/><circle cx="49" cy="56" r="3" fill="#e8a45a" stroke="none"/><circle cx="60" cy="82" r="3.5" fill="#e8a45a" stroke="none"/>
<path d="M34 20l-2-9m16 9 2-9" fill="none" stroke-width="3.5"/>
<circle cx="32" cy="10" r="3.5" fill="#e8a45a" stroke-width="3"/><circle cx="50" cy="10" r="3.5" fill="#e8a45a" stroke-width="3"/>
<ellipse cx="41" cy="28" rx="18" ry="14" fill="#ffd27a"/>
<g stroke="none"><ellipse cx="34" cy="26" rx="3" ry="3.4" fill="#4b2e22"/><ellipse cx="48" cy="26" rx="3" ry="3.4" fill="#4b2e22"/>
<circle cx="35.4" cy="24.4" r="1.4" fill="#fff"/><circle cx="49.4" cy="24.4" r="1.4" fill="#fff"/></g>
<g stroke="none" fill="#ff9bb5" opacity=".7"><ellipse cx="29" cy="33" rx="3.5" ry="2.2"/><ellipse cx="53" cy="33" rx="3.5" ry="2.2"/></g>
<path d="M38 34q3 3 6 0" fill="none" stroke-width="2.5"/>
<ellipse cx="58" cy="66" rx="13" ry="28" transform="rotate(-17 58 66)" fill="none" stroke="#f06aa8" stroke-width="3.5" stroke-dasharray="7 6"/>
<path d="M108 34Q98.0 39.0 72 56" fill="none" stroke="#f06aa8" stroke-width="3.5"/><path d="M76.5 48.2L72 56L81.0 55.6" fill="none" stroke="#f06aa8" stroke-width="3.5"/>
</g>
</svg>
