<svg xmlns="http://www.w3.org/2000/svg" viewBox="0 0 128 128">
<g stroke="#4b2e22" stroke-width="4" stroke-linejoin="round" stroke-linecap="round">
<circle cx="62.4" cy="47.2" r="12.8" fill="#e6e2f0" stroke="#4b2e22" stroke-width="8"/><circle cx="80.0" cy="38.4" r="17.6" fill="#e6e2f0" stroke="#4b2e22" stroke-width="8"/><circle cx="96.8" cy="46.4" r="13.6" fill="#e6e2f0" stroke="#4b2e22" stroke-width="8"/><circle cx="51.2" cy="53.6" r="8.8" fill="#e6e2f0" stroke="#4b2e22" stroke-width="8"/><circle cx="108.0" cy="53.6" r="8.8" fill="#e6e2f0" stroke="#4b2e22" stroke-width="8"/><rect x="48.0" y="45.6" width="64.0" height="16.0" rx="8.0" fill="#e6e2f0" stroke="#4b2e22" stroke-width="8"/><circle cx="62.4" cy="47.2" r="12.8" fill="#e6e2f0" stroke="none"/><circle cx="80.0" cy="38.4" r="17.6" fill="#e6e2f0" stroke="none"/><circle cx="96.8" cy="46.4" r="13.6" fill="#e6e2f0" stroke="none"/><circle cx="51.2" cy="53.6" r="8.8" fill="#e6e2f0" stroke="none"/><circle cx="108.0" cy="53.6" r="8.8" fill="#e6e2f0" stroke="none"/><rect x="48.0" y="45.6" width="64.0" height="16.0" rx="8.0" fill="#e6e2f0" stroke="none"/>
<circle cx="36.2" cy="82.3" r="17.3" fill="#ffffff" stroke="#4b2e22" stroke-width="8"/><circle cx="60.0" cy="70.4" r="23.8" fill="#ffffff" stroke="#4b2e22" stroke-width="8"/><circle cx="82.7" cy="81.2" r="18.4" fill="#ffffff" stroke="#4b2e22" stroke-width="8"/><circle cx="21.1" cy="91.0" r="11.9" fill="#ffffff" stroke="#4b2e22" stroke-width="8"/><circle cx="97.8" cy="91.0" r="11.9" fill="#ffffff" stroke="#4b2e22" stroke-width="8"/><rect x="16.8" y="80.2" width="86.4" height="21.6" rx="10.8" fill="#ffffff" stroke="#4b2e22" stroke-width="8"/><circle cx="36.2" cy="82.3" r="17.3" fill="#ffffff" stroke="none"/><circle cx="60.0" cy="70.4" r="23.8" fill="#ffffff" stroke="none"/><circle cx="82.7" cy="81.2" r="18.4" fill="#ffffff" stroke="none"/><circle cx="21.1" cy="91.0" r="11.9" fill="#ffffff" stroke="none"/><circle cx="97.8" cy="91.0" r="11.9" fill="#ffffff" stroke="none"/><rect x="16.8" y="80.2" width="86.4" height="21.6" rx="10.8" fill="#ffffff" stroke="none"/>
<g stroke="none"><ellipse cx="52" cy="80" rx="3.4" ry="3.9" fill="#4b2e22"/><ellipse cx="68" cy="80" rx="3.4" ry="3.9" fill="#4b2e22"/>
<circle cx="53.2" cy="78.6" r="1.2" fill="#fff"/><circle cx="69.2" cy="78.6" r="1.2" fill="#fff"/>
<g fill="#ff9bb5" opacity=".7"><ellipse cx="45.6" cy="88" rx="4.4" ry="2.6"/><ellipse cx="74.4" cy="88" rx="4.4" ry="2.6"/></g></g>
<path d="M57.0 89q3.0 3.3 6 0" fill="none" stroke-width="3"/>
</g>
</svg>
