<svg xmlns="http://www.w3.org/2000/svg" viewBox="0 0 128 128">
<g stroke="#4b2e22" stroke-width="4" stroke-linejoin="round" stroke-linecap="round">
<circle cx="36.5" cy="51.0" r="20.0" fill="#dfe8f5" stroke="#4b2e22" stroke-width="8"/><circle cx="64.0" cy="37.2" r="27.5" fill="#dfe8f5" stroke="#4b2e22" stroke-width="8"/><circle cx="90.2" cy="49.8" r="21.2" fill="#dfe8f5" stroke="#4b2e22" stroke-width="8"/><circle cx="19.0" cy="61.0" r="13.8" fill="#dfe8f5" stroke="#4b2e22" stroke-width="8"/><circle cx="107.8" cy="61.0" r="13.8" fill="#dfe8f5" stroke="#4b2e22" stroke-width="8"/><rect x="14.0" y="48.5" width="100.0" height="25.0" rx="12.5" fill="#dfe8f5" stroke="#4b2e22" stroke-width="8"/><circle cx="36.5" cy="51.0" r="20.0" fill="#dfe8f5" stroke="none"/><circle cx="64.0" cy="37.2" r="27.5" fill="#dfe8f5" stroke="none"/><circle cx="90.2" cy="49.8" r="21.2" fill="#dfe8f5" stroke="none"/><circle cx="19.0" cy="61.0" r="13.8" fill="#dfe8f5" stroke="none"/><circle cx="107.8" cy="61.0" r="13.8" fill="#dfe8f5" stroke="none"/><rect x="14.0" y="48.5" width="100.0" height="25.0" rx="12.5" fill="#dfe8f5" stroke="none"/>
<g stroke="none"><ellipse cx="54" cy="48" rx="3.6" ry="4.1" fill="#4b2e22"/><ellipse cx="74" cy="48" rx="3.6" ry="4.1" fill="#4b2e22"/>
<circle cx="55.3" cy="46.6" r="1.3" fill="#fff"/><circle cx="75.3" cy="46.6" r="1.3" fill="#fff"/>
<g fill="#ff9bb5" opacity=".7"><ellipse cx="47.4" cy="56" rx="4.6" ry="2.8"/><ellipse cx="80.6" cy="56" rx="4.6" ry="2.8"/></g></g>
<path d="M61.0 58q3.0 3.3 6 0" fill="none" stroke-width="3"/>
<path d="M38 83.0q7.0 9.0 7.0 13.0a7.0 7.0 0 0 1-14.0 0q0-4.0 7.0-13.0Z" fill="#8cc8f2" stroke-width="3"/><path d="M58 95.0q7.0 9.0 7.0 13.0a7.0 7.0 0 0 1-14.0 0q0-4.0 7.0-13.0Z" fill="#8cc8f2" stroke-width="3"/><path d="M78 83.0q7.0 9.0 7.0 13.0a7.0 7.0 0 0 1-14.0 0q0-4.0 7.0-13.0Z" fill="#8cc8f2" stroke-width="3"/><path d="M96 100.8q5.6 7.2 5.6 10.4a5.6 5.6 0 0 1-11.2 0q0-3.2 5.6-10.4Z" fill="#8cc8f2" stroke-width="3"/><path d="M28 106.8q5.6 7.2 5.6 10.4a5.6 5.6 0 0 1-11.2 0q0-3.2 5.6-10.4Z" fill="#8cc8f2" stroke-width="3"/>
</g>
</svg>
