<svg xmlns="http://www.w3.org/2000/svg" viewBox="0 0 128 128">
<g stroke="#4b2e22" stroke-width="4" stroke-linejoin="round" stroke-linecap="round">
<path d="M64 18c22 0 36 34 36 58s-16 36-36 36-36-12-36-36 14-58 36-58Z" fill="#fff3e0"/>
<path d="M46 40q6-12 14-16" fill="none" stroke="#ffffff" stroke-width="5"/>
<g stroke="none"><ellipse cx="54" cy="72" rx="4" ry="4.6" fill="#4b2e22"/><ellipse cx="74" cy="72" rx="4" ry="4.6" fill="#4b2e22"/>
<circle cx="55.4" cy="70.4" r="1.4" fill="#fff"/><circle cx="75.4" cy="70.4" r="1.4" fill="#fff"/>
<g fill="#ff9bb5" opacity=".7"><ellipse cx="46" cy="80" rx="6" ry="3.5"/><ellipse cx="82" cy="80" rx="6" ry="3.5"/></g></g>
<path d="M60.0 81q4.0 4.4 8 0" fill="none" stroke-width="3"/>
<path d="M104.0 24.0L105.6 27.8L109.7 28.1L106.6 30.8L107.5 34.9L104.0 32.7L100.5 34.9L101.4 30.8L98.3 28.1L102.4 27.8Z" fill="#ffc94a" stroke-width="2"/>
</g>
</svg>
