<svg xmlns="http://www.w3.org/2000/svg" viewBox="0 0 64 64">
<g stroke="#4b2e22" stroke-width="3" stroke-linejoin="round" stroke-linecap="round">
<path d="M48 4 30 22M56 8 36 26" stroke-width="5"/><path d="M48 4 30 22M56 8 36 26" stroke="#e8b27a" stroke-width="2"/>
<rect x="24" y="52" width="16" height="6" rx="2" fill="#f7a8c8"/>
<path d="M8 32h48q-2 20-24 24Q10 52 8 32Z" fill="#f7a8c8"/>
<path d="M9 32q1-14 23-16 22 2 23 16Z" fill="#ffffff"/>
</g>
<g stroke="none"><ellipse cx="26" cy="41" rx="2.2" ry="2.6" fill="#4b2e22"/><ellipse cx="38" cy="41" rx="2.2" ry="2.6" fill="#4b2e22"/>
<circle cx="26.8" cy="40" r=".8" fill="#fff"/><circle cx="38.8" cy="40" r=".8" fill="#fff"/>
<g fill="#ff9bb5" opacity=".75"><ellipse cx="20" cy="46" rx="2.8" ry="1.7"/><ellipse cx="44" cy="46" rx="2.8" ry="1.7"/></g></g>
<path d="M30 46q2 2.4 4 0" fill="none" stroke="#4b2e22" stroke-width="2" stroke-linecap="round"/>
</svg>
