<svg xmlns="http://www.w3.org/2000/svg" viewBox="0 0 128 128">
<g stroke="#4b2e22" stroke-width="4" stroke-linejoin="round" stroke-linecap="round">
<rect x="8" y="10" width="112" height="68" fill="#fff0f6"/>
<rect x="74" y="20" width="32" height="30" rx="4" fill="#bfe3f7" stroke-width="3"/>
<path d="M90 20v30M74 35h32" stroke-width="3"/>
<path d="M8 78h112l6 38H2Z" fill="#e8b27a"/>
<path d="M28 78L20 116" stroke="#c98a5a" stroke-width="2.5"/><path d="M46 78L42 116" stroke="#c98a5a" stroke-width="2.5"/><path d="M64 78L64 116" stroke="#c98a5a" stroke-width="2.5"/><path d="M82 78L86 116" stroke="#c98a5a" stroke-width="2.5"/><path d="M100 78L108 116" stroke="#c98a5a" stroke-width="2.5"/>
<path d="M8 78h112l6 38H2Z" fill="none"/>
<ellipse cx="44" cy="98" rx="22" ry="7" fill="#c9b2f7" stroke-width="3"/>
<path d="M32 70q-4-14 4-22M36 70q2-16 12-20M40 70q6-10 14-8" fill="none" stroke="#6cc28a" stroke-width="5"/>
<path d="M26 70h22l-3 22H29Z" fill="#f7a8c8"/>
<g stroke="none"><ellipse cx="33" cy="79" rx="2.4" ry="2.8" fill="#4b2e22"/><ellipse cx="41" cy="79" rx="2.4" ry="2.8" fill="#4b2e22"/>
<circle cx="33.8" cy="78.0" r="0.8" fill="#fff"/><circle cx="41.8" cy="78.0" r="0.8" fill="#fff"/>
<g fill="#ff9bb5" opacity=".7"><ellipse cx="28.4" cy="87" rx="2.6" ry="1.8"/><ellipse cx="45.6" cy="87" rx="2.6" ry="1.8"/></g></g>
<path d="M35.0 88q2.0 2.2 4 0" fill="none" stroke-width="3"/>
<path d="M12 82h104l5 30H7Z" fill="none" stroke="#f06aa8" stroke-width="3.5" stroke-dasharray="7 6"/>
<path d="M110 40Q97.0 61.5 96 74" fill="none" stroke="#f06aa8" stroke-width="3.5"/><path d="M95.0 65.1L96 74L103.0 68.3" fill="none" stroke="#f06aa8" stroke-width="3.5"/>
</g>
</svg>
