<svg xmlns="http://www.w3.org/2000/svg" viewBox="0 0 128 128">
<g stroke="#4b2e22" stroke-width="4" stroke-linejoin="round" stroke-linecap="round">
<rect x="6" y="38" width="116" height="78" rx="16" fill="#eef8fd"/>
<rect x="16" y="48" width="96" height="58" rx="10" fill="#8cc8f2"/>
<g fill="none" stroke="#fff" stroke-width="3"><path d="M24 62q5-4 10 0t10 0"/><path d="M76 92q5-4 10 0t10 0"/><path d="M28 96q5-4 10 0"/></g>
<g fill="none" stroke="#d6e9f7" stroke-width="2.5"><path d="M6 60h10M6 84h10M112 60h10M112 84h10M38 38v10M64 38v10M90 38v10M38 106v10M64 106v10M90 106v10"/></g>
<path d="M92 26v34M108 26v34" fill="none" stroke-width="5"/><path d="M92 26v34M108 26v34" fill="none" stroke="#e6e2f0" stroke-width="2"/>
<path d="M92 36h16M92 48h16" stroke-width="3"/>
<path d="M92 26q0-8 8-8M108 26q0-8-8-8" fill="none" stroke-width="5"/>
<ellipse cx="54" cy="82" rx="18" ry="10" fill="#ffd45e"/>
<path d="M40 78q-6-8 2-10" fill="#ffd45e" stroke-width="3"/>
<circle cx="64" cy="66" r="10" fill="#ffd45e"/>
<path d="M73 66l9 2-9 4Z" fill="#ffa552" stroke-width="3"/>
<g stroke="none"><ellipse cx="66" cy="63" rx="2.2" ry="2.6" fill="#4b2e22"/><circle cx="66.8" cy="62.2" r=".8" fill="#fff"/><ellipse cx="62" cy="70" rx="3" ry="1.8" fill="#ff9bb5" opacity=".75"/></g>
<path d="M46 80q6 4 12 0" fill="none" stroke="#e8b84a" stroke-width="2.5"/>
</g>
</svg>
